Results
version=1
nRows=4
nColumns=213
inDegrees=yes
endheader
time	platform_rx	platform_ry	platform_rz	platform_ty	pelvis_tilt	pelvis_list	pelvis_rotation	pelvis_tx	pelvis_ty	pelvis_tz	hip_flexion_r	hip_adduction_r	hip_rotation_r	knee_angle_r	knee_angle_r_beta	ankle_angle_r	subtalar_angle_r	mtp_angle_r	hip_flexion_l	hip_adduction_l	hip_rotation_l	knee_angle_l	knee_angle_l_beta	ankle_angle_l	subtalar_angle_l	mtp_angle_l	lumbar_extension	lumbar_bending	lumbar_rotation	arm_flex_r	arm_add_r	arm_rot_r	elbow_flex_r	pro_sup_r	wrist_flex_r	wrist_dev_r	arm_flex_l	arm_add_l	arm_rot_l	elbow_flex_l	pro_sup_l	wrist_flex_l	wrist_dev_l	platform_rx_u	platform_ry_u	platform_rz_u	platform_ty_u	pelvis_tilt_u	pelvis_list_u	pelvis_rotation_u	pelvis_tx_u	pelvis_ty_u	pelvis_tz_u	hip_flexion_r_u	hip_adduction_r_u	hip_rotation_r_u	knee_angle_r_u	knee_angle_r_beta_u	ankle_angle_r_u	subtalar_angle_r_u	mtp_angle_r_u	hip_flexion_l_u	hip_adduction_l_u	hip_rotation_l_u	knee_angle_l_u	knee_angle_l_beta_u	ankle_angle_l_u	subtalar_angle_l_u	mtp_angle_l_u	lumbar_extension_u	lumbar_bending_u	lumbar_rotation_u	arm_flex_r_u	arm_add_r_u	arm_rot_r_u	elbow_flex_r_u	pro_sup_r_u	wrist_flex_r_u	wrist_dev_r_u	arm_flex_l_u	arm_add_l_u	arm_rot_l_u	elbow_flex_l_u	pro_sup_l_u	wrist_flex_l_u	wrist_dev_l_u	addbrev_r.activation	addlong_r.activation	addlong_r.fiber_length	addmagDist_r.activation	addmagIsch_r.activation	addmagIsch_r.fiber_length	addmagMid_r.activation	addmagProx_r.activation	bflh_r.activation	bflh_r.fiber_length	bfsh_r.activation	edl_r.activation	edl_r.fiber_length	ehl_r.activation	ehl_r.fiber_length	fdl_r.activation	fdl_r.fiber_length	fhl_r.activation	fhl_r.fiber_length	gaslat_r.activation	gaslat_r.fiber_length	gasmed_r.activation	gasmed_r.fiber_length	glmax1_r.activation	glmax2_r.activation	glmax3_r.activation	glmed1_r.activation	glmed2_r.activation	glmed3_r.activation	glmin1_r.activation	glmin2_r.activation	glmin3_r.activation	glmin3_r.fiber_length	grac_r.activation	iliacus_r.activation	perbrev_r.activation	perbrev_r.fiber_length	perlong_r.activation	perlong_r.fiber_length	piri_r.activation	piri_r.fiber_length	psoas_r.activation	recfem_r.activation	recfem_r.fiber_length	sart_r.activation	semimem_r.activation	semimem_r.fiber_length	semiten_r.activation	semiten_r.fiber_length	soleus_r.activation	soleus_r.fiber_length	tfl_r.activation	tfl_r.fiber_length	tibant_r.activation	tibant_r.fiber_length	tibpost_r.activation	tibpost_r.fiber_length	vasint_r.activation	vasint_r.fiber_length	vaslat_r.activation	vaslat_r.fiber_length	vasmed_r.activation	vasmed_r.fiber_length	addbrev_l.activation	addlong_l.activation	addlong_l.fiber_length	addmagDist_l.activation	addmagIsch_l.activation	addmagIsch_l.fiber_length	addmagMid_l.activation	addmagProx_l.activation	bflh_l.activation	bflh_l.fiber_length	bfsh_l.activation	edl_l.activation	edl_l.fiber_length	ehl_l.activation	ehl_l.fiber_length	fdl_l.activation	fdl_l.fiber_length	fhl_l.activation	fhl_l.fiber_length	gaslat_l.activation	gaslat_l.fiber_length	gasmed_l.activation	gasmed_l.fiber_length	glmax1_l.activation	glmax2_l.activation	glmax3_l.activation	glmed1_l.activation	glmed2_l.activation	glmed3_l.activation	glmin1_l.activation	glmin2_l.activation	glmin3_l.activation	glmin3_l.fiber_length	grac_l.activation	iliacus_l.activation	perbrev_l.activation	perbrev_l.fiber_length	perlong_l.activation	perlong_l.fiber_length	piri_l.activation	piri_l.fiber_length	psoas_l.activation	recfem_l.activation	recfem_l.fiber_length	sart_l.activation	semimem_l.activation	semimem_l.fiber_length	semiten_l.activation	semiten_l.fiber_length	soleus_l.activation	soleus_l.fiber_length	tfl_l.activation	tfl_l.fiber_length	tibant_l.activation	tibant_l.fiber_length	tibpost_l.activation	tibpost_l.fiber_length	vasint_l.activation	vasint_l.fiber_length	vaslat_l.activation	vaslat_l.fiber_length	vasmed_l.activation	vasmed_l.fiber_length
      0.01520814	     20.00000000	     -0.00000000	     -0.00000000	      0.25000000	     -5.25042920	     -0.02249410	     -0.01704343	      0.09703260	      0.89263846	      0.00008330	     27.05204215	    -10.10547012	    -10.19109723	     37.27103400	     37.27103400	      3.94632606	     -2.71773028	      0.00000000	     27.03640998	    -10.25085572	    -10.24430465	     37.27785416	     37.27785416	      4.48267225	     -0.00000000	     -0.00000000	     -0.95211465	      0.01979319	      0.01723309	     36.15805495	     -0.00782408	     89.90409264	      0.12548068	      0.08744969	      0.00000000	      0.00000000	     36.15941302	     -0.01460704	     89.90694874	      0.12858843	      0.08795109	     -0.00000000	      0.00000000	     -0.00000000	     -0.00000000	     -0.00000000	      0.00000000	    105.36888827	     -1.83089293	     -1.28464542	      0.01508782	      0.07473382	      0.00734341	   -145.16552319	      5.55562122	    -25.52695534	   -113.41925876	   -113.41925876	  -1118.39263933	   -254.83304346	      0.00000000	   -146.40104542	     -7.07197770	    -30.32812267	   -113.04277353	   -113.04277353	  -1075.37916074	     -0.00000000	     -0.00000000	   -124.32961503	      1.49087361	      1.34149364	     19.87148771	     -0.93490977	     -0.82349164	      3.52690464	     -0.42702620	     -0.00000000	      0.00000000	     20.02962103	     -1.72316053	     -0.53145271	      3.88814656	     -0.36879961	      0.00000000	      0.00000000	      0.01000000	      0.01000000	      0.10404377	      0.01000000	      0.01000000	      0.15587614	      0.01000000	      0.01000000	      0.01000000	      0.09802696	      0.01000000	      0.01000000	      0.06565467	      0.01000000	      0.07524169	      0.01000000	      0.04661821	      0.01000000	      0.05334477	      0.01000000	      0.06322707	      0.01000000	      0.05473635	      0.01000000	      0.01000000	      0.01000000	      0.01000000	      0.01000000	      0.01000000	      0.01000000	      0.01000000	      0.01000000	      0.03717250	      0.01000000	      0.01000000	      0.01000000	      0.04793083	      0.01000000	      0.05398682	      0.01000000	      0.02115345	      0.01000000	      0.01000000	      0.07210197	      0.01000000	      0.01000000	      0.06698499	      0.01000000	      0.21332208	      0.01000000	      0.05094066	      0.01000000	      0.08204355	      0.01000000	      0.06331999	      0.01000000	      0.04053221	      0.01000000	      0.10752516	      0.01000000	      0.10579924	      0.01000000	      0.10497446	      0.01000000	      0.01000000	      0.10422239	      0.01000000	      0.01000000	      0.15596135	      0.01000000	      0.01000000	      0.01000000	      0.09805167	      0.01000000	      0.01000000	      0.06597773	      0.01000000	      0.07490249	      0.01000000	      0.04617934	      0.01000000	      0.05302337	      0.01000000	      0.06331758	      0.01000000	      0.05490504	      0.01000000	      0.01000000	      0.01000000	      0.01000000	      0.01000000	      0.01000000	      0.01000000	      0.01000000	      0.01000000	      0.03708115	      0.01000000	      0.01000000	      0.01000000	      0.04906270	      0.01000000	      0.05493909	      0.01000000	      0.02107630	      0.01000000	      0.01000000	      0.07207920	      0.01000000	      0.01000000	      0.06700339	      0.01000000	      0.21336758	      0.01000000	      0.05105934	      0.01000000	      0.08193529	      0.01000000	      0.06255261	      0.01000000	      0.04002768	      0.01000000	      0.10752946	      0.01000000	      0.10580347	      0.01000000	      0.10497833
      0.01596923	     20.00000000	     -0.00000000	     -0.00000000	      0.25000000	     -5.16822797	     -0.02386227	     -0.01799836	      0.09704496	      0.89269614	      0.00008883	     26.93846495	    -10.10120428	    -10.21100043	     37.18231452	     37.18231452	      3.09162004	     -2.91061527	      0.00000000	     26.92190629	    -10.25608788	    -10.26785132	     37.18938518	     37.18938518	      3.66005537	     -0.00000000	     -0.00000000	     -1.04901425	      0.02089836	      0.01823381	     36.17350056	     -0.00854881	     89.90344803	      0.12820972	      0.08715911	      0.00000000	      0.00000000	     36.17498025	     -0.01593795	     89.90652879	      0.13159529	      0.08770528	     -0.00000000	      0.00000000	     -0.00000000	     -0.00000000	     -0.00000000	      0.00000000	    110.63362118	     -1.76306022	     -1.22477651	      0.01740969	      0.07680949	      0.00719127	   -153.29117789	      5.65302998	    -26.76993932	   -119.70462033	   -119.70462033	  -1127.08046455	   -251.84706245	      0.00000000	   -154.49104609	     -6.67006230	    -31.54383391	   -119.42575328	   -119.42575328	  -1085.78869906	     -0.00000000	     -0.00000000	   -130.29344330	      1.41219294	      1.28823662	     20.71406032	     -0.96954346	     -0.87041143	      3.64366650	     -0.33494751	     -0.00000000	      0.00000000	     20.87540885	     -1.77348721	     -0.57234912	      4.01216303	     -0.27559335	      0.00000000	      0.00000000	      0.01000000	      0.01000000	      0.10411295	      0.01000000	      0.01000000	      0.15576986	      0.01000000	      0.01000000	      0.01000000	      0.09796988	      0.01000000	      0.01000000	      0.06612992	      0.01000000	      0.07581414	      0.01000000	      0.04658980	      0.01000000	      0.05323769	      0.01000000	      0.06278501	      0.01000000	      0.05434062	      0.01000000	      0.01000000	      0.01000000	      0.01000000	      0.01000000	      0.01000000	      0.01000000	      0.01000000	      0.01000000	      0.03714536	      0.01000000	      0.01000000	      0.01000000	      0.04777711	      0.01000000	      0.05381198	      0.01000000	      0.02112520	      0.01000000	      0.01000000	      0.07212112	      0.01000000	      0.01000000	      0.06695586	      0.01000000	      0.21328107	      0.01000000	      0.05047814	      0.01000000	      0.08211200	      0.01000000	      0.06397206	      0.01000000	      0.04048569	      0.01000000	      0.10746941	      0.01000000	      0.10574434	      0.01000000	      0.10492430	      0.01000000	      0.01000000	      0.10429809	      0.01000000	      0.01000000	      0.15586141	      0.01000000	      0.01000000	      0.01000000	      0.09799693	      0.01000000	      0.01000000	      0.06648282	      0.01000000	      0.07545215	      0.01000000	      0.04610603	      0.01000000	      0.05289774	      0.01000000	      0.06287452	      0.01000000	      0.05449931	      0.01000000	      0.01000000	      0.01000000	      0.01000000	      0.01000000	      0.01000000	      0.01000000	      0.01000000	      0.01000000	      0.03704741	      0.01000000	      0.01000000	      0.01000000	      0.04898917	      0.01000000	      0.05483638	      0.01000000	      0.02104182	      0.01000000	      0.01000000	      0.07209592	      0.01000000	      0.01000000	      0.06697615	      0.01000000	      0.21333009	      0.01000000	      0.05060486	      0.01000000	      0.08199517	      0.01000000	      0.06315480	      0.01000000	      0.03993427	      0.01000000	      0.10747392	      0.01000000	      0.10574880	      0.01000000	      0.10492836
      0.01673032	     20.00000000	     -0.00000000	     -0.00000000	      0.25000000	     -5.08203977	     -0.02517502	     -0.01890642	      0.09705912	      0.89275532	      0.00009424	     26.81871716	    -10.09686891	    -10.23183918	     37.08884882	     37.08884882	      2.23145987	     -3.10082472	      0.00000000	     26.80125822	    -10.26099678	    -10.29231024	     37.09608919	     37.09608919	      2.83063453	     -0.00000000	     -0.00000000	     -1.15042350	      0.02194031	      0.01919264	     36.18958101	     -0.00929967	     89.90276770	      0.13102561	      0.08694211	     -0.00000000	      0.00000000	     36.19118454	     -0.01730570	     89.90607726	      0.13469396	      0.08753380	     -0.00000000	      0.00000000	     -0.00000000	     -0.00000000	     -0.00000000	      0.00000000	    115.84204250	     -1.68497571	     -1.16041618	      0.01978983	      0.07866771	      0.00700761	   -161.37354979	      5.73716515	    -27.98606143	   -125.88682221	   -125.88682221	  -1132.80959555	   -247.83042600	      0.00000000	   -162.53930959	     -6.22251437	    -32.72311049	   -125.72197314	   -125.72197314	  -1093.34495418	     -0.00000000	     -0.00000000	   -136.17622329	      1.32439786	      1.23035337	     21.53942502	     -1.00340169	     -0.91737516	      3.75505596	     -0.23389525	     -0.00000000	      0.00000000	     21.70341656	     -1.82016568	     -0.61433402	      4.12950047	     -0.17363498	     -0.00000000	      0.00000000	      0.01000000	      0.01000000	      0.10418564	      0.01000000	      0.01000000	      0.15565758	      0.01000000	      0.01000000	      0.01000000	      0.09790916	      0.01000000	      0.01000000	      0.06660971	      0.01000000	      0.07637897	      0.01000000	      0.04655892	      0.01000000	      0.05312685	      0.01000000	      0.06237115	      0.01000000	      0.05398947	      0.01000000	      0.01000000	      0.01000000	      0.01000000	      0.01000000	      0.01000000	      0.01000000	      0.01000000	      0.01000000	      0.03711644	      0.01000000	      0.01000000	      0.01000000	      0.04762391	      0.01000000	      0.05363671	      0.01000000	      0.02109506	      0.01000000	      0.01000000	      0.07214154	      0.01000000	      0.01000000	      0.06692477	      0.01000000	      0.21323779	      0.01000000	      0.05000647	      0.01000000	      0.08218416	      0.01000000	      0.06463073	      0.01000000	      0.04043680	      0.01000000	      0.10741032	      0.01000000	      0.10568613	      0.01000000	      0.10487116	      0.01000000	      0.01000000	      0.10438688	      0.01000000	      0.01000000	      0.15575533	      0.01000000	      0.01000000	      0.01000000	      0.09793856	      0.01000000	      0.01000000	      0.06699299	      0.01000000	      0.07600035	      0.01000000	      0.04603023	      0.01000000	      0.05277161	      0.01000000	      0.06245480	      0.01000000	      0.05413041	      0.01000000	      0.01000000	      0.01000000	      0.01000000	      0.01000000	      0.01000000	      0.01000000	      0.01000000	      0.01000000	      0.03701205	      0.01000000	      0.01000000	      0.01000000	      0.04891397	      0.01000000	      0.05473150	      0.01000000	      0.02100560	      0.01000000	      0.01000000	      0.07211385	      0.01000000	      0.01000000	      0.06694700	      0.01000000	      0.21329032	      0.01000000	      0.05014060	      0.01000000	      0.08205897	      0.01000000	      0.06376131	      0.01000000	      0.03983835	      0.01000000	      0.10741501	      0.01000000	      0.10569076	      0.01000000	      0.10487537
      0.01749141	     20.00000000	     -0.00000000	     -0.00000000	      0.25000000	     -4.99191255	     -0.02642574	     -0.01976441	      0.09707510	      0.89281583	      0.00009949	     26.69284272	    -10.09247287	    -10.25359221	     36.99072295	     36.99072295	      1.36793224	     -3.28762973	      0.00000000	     26.67450957	    -10.26555194	    -10.31765443	     36.99804200	     36.99804200	      1.99639545	     -0.00000000	     -0.00000000	     -1.25627588	      0.02291328	      0.02010628	     36.20628311	     -0.01007604	     89.90205165	      0.13392432	      0.08680517	     -0.00000000	      0.00000000	     36.20801227	     -0.01870763	     89.90559340	      0.13787949	      0.08744300	     -0.00000000	      0.00000000	     -0.00000000	     -0.00000000	     -0.00000000	      0.00000000	    120.98429453	     -1.60098220	     -1.09410713	      0.02220529	      0.08030441	      0.00680249	   -169.38917552	      5.81402429	    -29.17150687	   -131.94899010	   -131.94899010	  -1135.97427814	   -242.91471108	      0.00000000	   -170.52055710	     -5.74314903	    -33.87219766	   -131.90842956	   -131.90842956	  -1098.50684590	     -0.00000000	     -0.00000000	   -141.96900180	      1.23191134	      1.17036882	     22.34781465	     -1.03668954	     -0.96424618	      3.86141478	     -0.12461981	     -0.00000000	      0.00000000	     22.51383867	     -1.86321453	     -0.65734132	      4.24041462	     -0.06368936	     -0.00000000	      0.00000000	      0.01000000	      0.01000000	      0.10426284	      0.01000000	      0.01000000	      0.15553935	      0.01000000	      0.01000000	      0.01000000	      0.09784478	      0.01000000	      0.01000000	      0.06709265	      0.01000000	      0.07693226	      0.01000000	      0.04652557	      0.01000000	      0.05301248	      0.01000000	      0.06199912	      0.01000000	      0.05367909	      0.01000000	      0.01000000	      0.01000000	      0.01000000	      0.01000000	      0.01000000	      0.01000000	      0.01000000	      0.01000000	      0.03708574	      0.01000000	      0.01000000	      0.01000000	      0.04747187	      0.01000000	      0.05346177	      0.01000000	      0.02106305	      0.01000000	      0.01000000	      0.07216323	      0.01000000	      0.01000000	      0.06689167	      0.01000000	      0.21319221	      0.01000000	      0.04952793	      0.01000000	      0.08225995	      0.01000000	      0.06529131	      0.01000000	      0.04038558	      0.01000000	      0.10734796	      0.01000000	      0.10562465	      0.01000000	      0.10481510	      0.01000000	      0.01000000	      0.10447015	      0.01000000	      0.01000000	      0.15564314	      0.01000000	      0.01000000	      0.01000000	      0.09787654	      0.01000000	      0.01000000	      0.06750646	      0.01000000	      0.07653927	      0.01000000	      0.04595220	      0.01000000	      0.05264540	      0.01000000	      0.06207354	      0.01000000	      0.05380379	      0.01000000	      0.01000000	      0.01000000	      0.01000000	      0.01000000	      0.01000000	      0.01000000	      0.01000000	      0.01000000	      0.03697508	      0.01000000	      0.01000000	      0.01000000	      0.04883727	      0.01000000	      0.05462476	      0.01000000	      0.02096767	      0.01000000	      0.01000000	      0.07213301	      0.01000000	      0.01000000	      0.06691588	      0.01000000	      0.21324824	      0.01000000	      0.04966864	      0.01000000	      0.08212664	      0.01000000	      0.06437073	      0.01000000	      0.03974024	      0.01000000	      0.10735276	      0.01000000	      0.10562940	      0.01000000	      0.10481941
